# xmcd
# 
# Track frame offsets:
#     150
#     32090
#     59954
#     80066
#     100392
#     121054
#     138195
#     166952
# 
# Disc length: 2401
# 
# Revision: 1
# Processed by: cddbd v1.5.2PL0 Copyright (c) Steve Scherf et al.
# Submitted via: BonkEnc v1.0.8
# 
DISCID=6c095f08
DTITLE=RIDDIM SAUNTER - BRIGHTEN OURS FROM THE REMIXES
DYEAR=2008
DGENRE=Rock
TTITLE0=riddim saunter's Intro (Radio Acoustique Version)
TTITLE1=Music By. (CUBISMO GRAFICO CLIMB MIX)
TTITLE2=The Three Wishes Of A Dwarf (Kiiiiii and DJ codomo Remix)
TTITLE3=Hey, Please Tip Me Off (33Hz Remix)
TTITLE4=Dear Joyce (Avaion Remix)
TTITLE5=Face Face Face (Matias Tellez Remix)
TTITLE6=She Has No(ise) Melody (effective dose Remix)
TTITLE7=Color Of Daytime (Soft Touch Remix)
EXTD=
EXTT0=
EXTT1=
EXTT2=
EXTT3=
EXTT4=
EXTT5=
EXTT6=
EXTT7=
PLAYORDER=
